<?xml version="1.0" standalone="no"?><!DOCTYPE svg PUBLIC "-//W3C//DTD SVG 1.1//EN" "http://www.w3.org/Graphics/SVG/1.1/DTD/svg11.dtd"><svg t="1638798162134" class="icon" viewBox="0 0 1024 1024" version="1.1" xmlns="http://www.w3.org/2000/svg" p-id="17599" width="512" height="512" xmlns:xlink="http://www.w3.org/1999/xlink"><defs><style type="text/css"></style></defs><path d="M508.567079 553.190048c-22.084056 0-39.987426-17.902371-39.987425-39.987426V42.986483c0-22.084056 17.90337-39.987426 39.987425-39.987426 22.085055 0 39.987426 17.90337 39.987426 39.987426v470.216139c0 22.085055-17.902371 39.987426-39.987426 39.987426z" fill="#1C86E5" p-id="17600"></path><path d="M509.267859 297.542437c-10.233782 0-20.467564-3.903772-28.275109-11.712317L352.362199 157.200568c-15.616089-15.616089-15.616089-40.935128 0-56.550218 15.616089-15.616089 40.934128-15.616089 56.550217 0l100.355443 100.355443 100.355443-100.355443c15.616089-15.616089 40.934128-15.616089 56.550218 0 15.616089 15.616089 15.616089 40.934128 0 56.550218L537.542968 285.83012c-7.808545 7.808545-18.041327 11.712317-28.275109 11.712317zM505.363087 553.506948a39.803484 39.803484 0 0 1-19.956725-5.364313L78.186414 313.033566c-19.125986-11.042528-25.678925-35.497838-14.636398-54.623824s35.498837-25.678925 54.623824-14.636397l407.220948 235.109069c19.125986 11.042528 25.678925 35.497838 14.636398 54.623823-7.406671 12.827966-20.848444 20.000711-34.668099 20.000711z" fill="#1C86E5" p-id="17601"></path><path d="M108.614846 472.162527c-17.656448 0.001-33.812368-11.781295-38.599862-29.647677-5.716203-21.332292 6.942817-43.258397 28.275108-48.9746l137.087893-36.733449-36.733449-137.085893c-5.716203-21.332292 6.943816-43.258397 28.275108-48.9746 21.336291-5.713203 43.258397 6.943816 48.9746 28.275109l47.082195 175.711747c5.716203 21.332292-6.942817 43.258397-28.275109 48.9746l-175.712746 47.083194a40.084395 40.084395 0 0 1-10.373738 1.371569zM98.916895 790.529416c-13.820654 0-27.260428-7.171745-34.667099-20.000711-11.041528-19.125986-4.489588-43.581296 14.636398-54.623824l407.219948-235.110068c19.124986-11.041528 43.581296-4.489588 54.623824 14.636397s4.489588 43.581296-14.636398 54.623823L118.87362 785.165102a39.806483 39.806483 0 0 1-19.956725 5.364314z" fill="#1C86E5" p-id="17602"></path><path d="M237.295382 858.354088c-3.425923 0-6.906828-0.442861-10.373738-1.372569-21.332292-5.715203-33.991311-27.641308-28.276109-48.9736l36.73245-137.087892-137.086893-36.73145c-21.332292-5.715203-33.991311-27.641308-28.276108-48.9736 5.715203-21.331292 27.639309-33.99531 48.974599-28.275108l175.711747 47.081195a39.986426 39.986426 0 0 1 28.276109 48.974599l-47.081195 175.712747c-4.787495 17.862383-20.945414 29.644678-38.600862 29.645678z" fill="#1C86E5" p-id="17603"></path><path d="M508.272172 1024c-22.084056 0-39.987426-17.902371-39.987426-39.987426V513.796435c0-22.084056 17.90337-39.987426 39.987426-39.987426 22.085055 0 39.987426 17.90337 39.987426 39.987426v470.216139c0 22.085055-17.90337 39.987426-39.987426 39.987426z" fill="#1C86E5" p-id="17604"></path><path d="M378.941841 938.062023c-10.233782 0-20.467564-3.903772-28.275109-11.712317-15.616089-15.616089-15.616089-40.934128 0-56.550217l128.630551-128.630552c15.617089-15.617089 40.935128-15.61509 56.550218 0l128.631551 128.629552c15.616089 15.61509 15.616089 40.934128 0 56.550218s-40.934128 15.616089-56.550217 0L507.572392 825.995263 407.217949 926.350706c-7.808545 7.807545-18.042327 11.711317-28.276108 11.711317z" fill="#1C86E5" p-id="17605"></path><path d="M916.928669 789.315797a39.803484 39.803484 0 0 1-19.956725-5.364313l-407.220948-235.10607c-19.124986-11.041528-25.678925-35.497838-14.636397-54.623824 11.042528-19.124986 35.497838-25.678925 54.623823-14.636397l407.220948 235.10607c19.125986 11.042528 25.678925 35.498837 14.636398 54.624823-7.406671 12.827966-20.848444 19.999711-34.667099 19.999711z" fill="#1C86E5" p-id="17606"></path><path d="M777.850403 858.354088c-17.656448 0-33.812368-11.781295-38.598863-29.647677l-47.082195-175.712747c-5.716203-21.331292 6.942817-43.257398 28.275109-48.9736l175.711747-47.083195c21.326294-5.721201 43.258397 6.941817 48.9736 28.275109 5.716203 21.331292-6.942817 43.257398-28.275109 48.9736l-137.086892 36.733449 36.732449 137.087893c5.716203 21.332292-6.942817 43.257398-28.275109 48.9736a39.966432 39.966432 0 0 1-10.374737 1.373568z" fill="#1C86E5" p-id="17607"></path><path d="M506.441748 554.937498c-13.820654 0-27.260428-7.171745-34.668099-20.000711-11.041528-19.125986-4.489588-43.581296 14.636398-54.623823L893.628996 245.202895c19.126985-11.040528 43.581296-4.490588 54.623823 14.636398 11.042528 19.124986 4.489588 43.581296-14.636398 54.623823L526.397473 549.573185a39.797486 39.797486 0 0 1-19.955725 5.364313z" fill="#1C86E5" p-id="17608"></path><path d="M903.889769 474.802697c-3.426922 0-6.907828-0.442861-10.374738-1.372569l-175.712746-47.082194c-21.332292-5.716203-33.991311-27.642308-28.275109-48.9746l47.081195-175.711747c5.716203-21.332292 27.638309-33.992311 48.9736-28.276109 21.332292 5.716203 33.991311 27.642308 28.275109 48.9746l-36.73145 137.086893 137.087893 36.732449c21.332292 5.716203 33.991311 27.642308 28.275109 48.9746-4.786495 17.866382-20.944414 29.648677-38.598863 29.648677z" fill="#1C86E5" p-id="17609"></path><path d="M508.893977 514.524206m-118.87462 0a118.87462 118.87462 0 1 0 237.749239 0 118.87462 118.87462 0 1 0-237.749239 0Z" fill="#FFFFFF" p-id="17610"></path><path d="M508.893977 673.387251c-87.597455 0-158.862045-71.26559-158.862046-158.863045 0-87.597455 71.26559-158.863045 158.862046-158.863045 87.596455 0 158.862045 71.26559 158.862045 158.863045 0 87.597455-71.26559 158.863045-158.862045 158.863045z m0-237.751238c-43.498322 0-78.887194 35.388872-78.887194 78.888193s35.388872 78.888193 78.887194 78.888194c43.499322 0 78.887194-35.388872 78.887193-78.888194s-35.388872-78.888193-78.887193-78.888193z" fill="#80E1FF" p-id="17611"></path></svg>